HIERARCHY
ROOT Hips
{
    OFFSET   0.000000   0.000000   0.000000
    CHANNELS 6 Xposition Yposition Zposition Zrotation Xrotation Yrotation
    JOINT Chest
    {
        OFFSET   0.000000   8.007230   0.000000
        CHANNELS 3 Zrotation Xrotation Yrotation
        JOINT Chest2
        {
            OFFSET   0.000000  22.077100   0.000000
            CHANNELS 3 Zrotation Xrotation Yrotation
            JOINT Neck
            {
                OFFSET   0.000000  23.254800  -0.000021
                CHANNELS 3 Zrotation Xrotation Yrotation
                JOINT Head
                {
                    OFFSET   0.000000  14.370000   1.956610
                    CHANNELS 3 Zrotation Xrotation Yrotation
                    End Site
                    {
                        OFFSET   0.000000  19.566000   0.000000
                    }
                }
            }
            JOINT LeftCollar
            {
                OFFSET   3.911900  19.017000  -0.467063
                CHANNELS 3 Zrotation Xrotation Yrotation
                JOINT LeftShoulder
                {
                    OFFSET  10.383700   0.000000   0.000000
                    CHANNELS 3 Zrotation Xrotation Yrotation
                    JOINT LeftElbow
                    {
                        OFFSET  26.662100   0.001529   0.000325
                        CHANNELS 3 Zrotation Xrotation Yrotation
                        JOINT LeftWrist
                        {
                            OFFSET  28.869000  -0.000011  -0.000096
                            CHANNELS 3 Zrotation Xrotation Yrotation
                            JOINT LeftFinger0
                            {
                                OFFSET   2.044650  -2.323460   3.252850
                                CHANNELS 3 Zrotation Xrotation Yrotation
                                JOINT LeftFinger01
                                {
                                    OFFSET   3.088130   0.000000   0.000000
                                    CHANNELS 3 Zrotation Xrotation Yrotation
                                    JOINT LeftFinger02
                                    {
                                        OFFSET   2.639460   0.000000   0.000000
                                        CHANNELS 3 Zrotation Xrotation Yrotation
                                        End Site
                                        {
                                            OFFSET   2.582190   0.000000   0.000000
                                        }
                                    }
                                }
                            }
                            JOINT LeftFinger1
                            {
                                OFFSET   8.364480   0.000000   3.252850
                                CHANNELS 3 Zrotation Xrotation Yrotation
                                JOINT LeftFinger11
                                {
                                    OFFSET   4.646930   0.000000   0.000000
                                    CHANNELS 3 Zrotation Xrotation Yrotation
                                    JOINT LeftFinger12
                                    {
                                        OFFSET   2.323460   0.000000   0.000000
                                        CHANNELS 3 Zrotation Xrotation Yrotation
                                        End Site
                                        {
                                            OFFSET   2.273050   0.000000   0.000000
                                        }
                                    }
                                }
                            }
                            JOINT LeftFinger2
                            {
                                OFFSET   8.364480   0.000016   1.078090
                                CHANNELS 3 Zrotation Xrotation Yrotation
                                JOINT LeftFinger21
                                {
                                    OFFSET   5.111620   0.000000   0.000000
                                    CHANNELS 3 Zrotation Xrotation Yrotation
                                    JOINT LeftFinger22
                                    {
                                        OFFSET   2.788160   0.000017   0.000000
                                        CHANNELS 3 Zrotation Xrotation Yrotation
                                        End Site
                                        {
                                            OFFSET   2.727660   0.000000   0.000000
                                        }
                                    }
                                }
                            }
                            JOINT LeftFinger3
                            {
                                OFFSET   7.899780   0.000015  -1.078090
                                CHANNELS 3 Zrotation Xrotation Yrotation
                                JOINT LeftFinger31
                                {
                                    OFFSET   4.646920   0.000000   0.000000
                                    CHANNELS 3 Zrotation Xrotation Yrotation
                                    JOINT LeftFinger32
                                    {
                                        OFFSET   2.323470   0.000000   0.000000
                                        CHANNELS 3 Zrotation Xrotation Yrotation
                                        End Site
                                        {
                                            OFFSET   2.273050   0.000000   0.000000
                                        }
                                    }
                                }
                            }
                            JOINT LeftFinger4
                            {
                                OFFSET   7.435090   0.000000  -3.252850
                                CHANNELS 3 Zrotation Xrotation Yrotation
                                JOINT LeftFinger41
                                {
                                    OFFSET   3.717550   0.000000   0.000000
                                    CHANNELS 3 Zrotation Xrotation Yrotation
                                    JOINT LeftFinger42
                                    {
                                        OFFSET   1.858760   0.000000   0.000000
                                        CHANNELS 3 Zrotation Xrotation Yrotation
                                        End Site
                                        {
                                            OFFSET   1.818440   0.000000   0.000000
                                        }
                                    }
                                }
                            }
                        }
                    }
                }
            }
            JOINT RightCollar
            {
                OFFSET  -3.911900  19.017000  -0.467062
                CHANNELS 3 Zrotation Xrotation Yrotation
                JOINT RightShoulder
                {
                    OFFSET -10.383700   0.000015   0.000000
                    CHANNELS 3 Zrotation Xrotation Yrotation
                    JOINT RightElbow
                    {
                        OFFSET -26.662100   0.001341   0.000385
                        CHANNELS 3 Zrotation Xrotation Yrotation
                        JOINT RightWrist
                        {
                            OFFSET -28.869000   0.000025  -0.000080
                            CHANNELS 3 Zrotation Xrotation Yrotation
                            JOINT RightFinger0
                            {
                                OFFSET  -2.044650  -2.323490   3.252850
                                CHANNELS 3 Zrotation Xrotation Yrotation
                                JOINT RightFinger01
                                {
                                    OFFSET  -3.088130   0.000000   0.000000
                                    CHANNELS 3 Zrotation Xrotation Yrotation
                                    JOINT RightFinger02
                                    {
                                        OFFSET  -2.639460   0.000000   0.000000
                                        CHANNELS 3 Zrotation Xrotation Yrotation
                                        End Site
                                        {
                                            OFFSET  -2.582190   0.000000   0.000000
                                        }
                                    }
                                }
                            }
                            JOINT RightFinger1
                            {
                                OFFSET  -8.364480   0.000000   3.252850
                                CHANNELS 3 Zrotation Xrotation Yrotation
                                JOINT RightFinger11
                                {
                                    OFFSET  -4.646930   0.000000   0.000000
                                    CHANNELS 3 Zrotation Xrotation Yrotation
                                    JOINT RightFinger12
                                    {
                                        OFFSET  -2.323470   0.000000   0.000000
                                        CHANNELS 3 Zrotation Xrotation Yrotation
                                        End Site
                                        {
                                            OFFSET  -2.273050   0.000000   0.000000
                                        }
                                    }
                                }
                            }
                            JOINT RightFinger2
                            {
                                OFFSET  -8.364480   0.000000   1.078090
                                CHANNELS 3 Zrotation Xrotation Yrotation
                                JOINT RightFinger21
                                {
                                    OFFSET  -5.111610   0.000000   0.000000
                                    CHANNELS 3 Zrotation Xrotation Yrotation
                                    JOINT RightFinger22
                                    {
                                        OFFSET  -2.788160   0.000000   0.000000
                                        CHANNELS 3 Zrotation Xrotation Yrotation
                                        End Site
                                        {
                                            OFFSET  -2.727660   0.000000   0.000000
                                        }
                                    }
                                }
                            }
                            JOINT RightFinger3
                            {
                                OFFSET  -7.899780   0.000000  -1.078090
                                CHANNELS 3 Zrotation Xrotation Yrotation
                                JOINT RightFinger31
                                {
                                    OFFSET  -4.646920   0.000000   0.000000
                                    CHANNELS 3 Zrotation Xrotation Yrotation
                                    JOINT RightFinger32
                                    {
                                        OFFSET  -2.323470   0.000000   0.000000
                                        CHANNELS 3 Zrotation Xrotation Yrotation
                                        End Site
                                        {
                                            OFFSET  -2.273050   0.000000   0.000000
                                        }
                                    }
                                }
                            }
                            JOINT RightFinger4
                            {
                                OFFSET  -7.435090   0.000000  -3.252850
                                CHANNELS 3 Zrotation Xrotation Yrotation
                                JOINT RightFinger41
                                {
                                    OFFSET  -3.717550   0.000000   0.000000
                                    CHANNELS 3 Zrotation Xrotation Yrotation
                                    JOINT RightFinger42
                                    {
                                        OFFSET  -1.858770   0.000000   0.000000
                                        CHANNELS 3 Zrotation Xrotation Yrotation
                                        End Site
                                        {
                                            OFFSET  -1.818440   0.000000   0.000000
                                        }
                                    }
                                }
                            }
                        }
                    }
                }
            }
        }
    }
    JOINT LeftHip
    {
        OFFSET   9.783010   0.000000   0.000000
        CHANNELS 3 Zrotation Xrotation Yrotation
        JOINT LeftKnee
        {
            OFFSET   0.000070 -41.789100   0.000028
            CHANNELS 3 Zrotation Xrotation Yrotation
            JOINT LeftAnkle
            {
                OFFSET   0.000087 -41.133200  -0.000100
                CHANNELS 3 Zrotation Xrotation Yrotation
                JOINT LeftToe
                {
                    OFFSET   0.000000  -6.358960  14.674500
                    CHANNELS 3 Zrotation Xrotation Yrotation
                    End Site
                    {
                        OFFSET   0.000000   0.000000   3.913200
                    }
                }
            }
        }
    }
    JOINT RightHip
    {
        OFFSET  -9.783020   0.000000   0.000000
        CHANNELS 3 Zrotation Xrotation Yrotation
        JOINT RightKnee
        {
            OFFSET   0.000044 -41.789100  -0.000870
            CHANNELS 3 Zrotation Xrotation Yrotation
            JOINT RightAnkle
            {
                OFFSET  -0.000090 -41.133200  -0.000245
                CHANNELS 3 Zrotation Xrotation Yrotation
                JOINT RightToe
                {
                    OFFSET   0.000000  -6.358960  14.674500
                    CHANNELS 3 Zrotation Xrotation Yrotation
                    End Site
                    {
                        OFFSET   0.000000   0.000000   3.913200
                    }
                }
            }
        }
    }
}
MOTION
Frames: 5
Frame Time:   0.016667
  1.847800  89.193200   1.774690  -1.280540 -13.961500  -3.862770   1.352470   9.794560   2.048560   2.396600  19.629600   3.946890  -1.558260  -2.121760  -0.060133  -2.569390  -4.292460   3.064920  -7.596750  -3.923360   4.300130 -74.998500  16.368900  -9.501420  -0.962343  -2.160270 -17.060200   8.462630  -6.176080  -4.159640  39.104000  31.720200 -50.153800 -32.510800   0.002463   0.002607 -11.255400   0.000492   0.001753 -30.571100  -1.323600   2.239490 -25.034000   0.003669  -0.006687 -17.523800   0.002562  -0.007926 -22.976700  -4.072470   9.508400 -23.315600  -0.001560  -0.009628 -15.528200  -0.000846   0.003284 -28.216000  -4.928640   9.097470 -37.523000   0.000304  -0.007038 -24.990400   0.009205  -0.004275 -35.053500  -5.979870   8.446640 -53.246400  -0.003436  -0.007779 -35.462100  -0.002301  -0.000590   3.975370  -2.087010  11.302800  59.650300  -5.099330  65.517900  -8.014240 -15.984700  80.719700  -1.001520  -2.878310   9.924400 -32.377300  37.416200  71.565700  43.803400  -0.002206   0.001266  19.209900  -0.001887   0.000628   3.591590   0.662088  10.276900   2.983140   0.000764   0.009216   2.088200  -0.001425   0.006848  81.055700   0.000244   0.000481  81.055700   0.000350   0.003891  60.791800   0.004108  -0.000757  81.044700  -4.941290  -0.778030  81.078200   0.000959   0.001138  60.808700  -0.000743  -0.000874  84.091100  -9.948560  -1.023810 110.000000  -0.005385  -0.001176  80.000000  -0.002142  -0.003480   0.788863  15.035100  -0.282885  -0.452371   2.217400  11.400600  -1.578320  -3.985430   0.734319   0.000000   0.000000   0.000000  -0.655284   8.587020  -5.466160  -2.728980  14.100800 -11.476000   3.610790  -7.299200   2.210720  -0.000000   0.000000  -0.000000
  1.817980  89.211200   1.838400  -1.191000 -14.101500  -3.145150   1.258290   9.783330   2.131140   2.189300  19.605400   4.132940  -1.464810  -2.219630  -0.059879  -2.416360  -4.491920   2.532740  -7.599380  -3.939660   4.227330 -74.899600  16.236900  -9.514200  -0.914743  -2.174370 -16.745500   8.447930  -5.820750  -4.145750  39.324600  32.124100 -50.827200 -32.476700   0.002487   0.002651 -11.238300   0.000536   0.001763 -30.523800  -1.341660   2.274220 -24.995300   0.003679  -0.006769 -17.496700   0.002617  -0.008050 -23.115500  -4.084600   9.473180 -23.454200  -0.001559  -0.009756 -15.620500  -0.000862   0.003339 -28.210400  -4.914450   9.073580 -37.409600   0.000341  -0.007141 -24.914800   0.009310  -0.004306 -34.937900  -5.947060   8.436130 -53.065400  -0.003442  -0.008011 -35.341600  -0.002307  -0.000596   3.972880  -2.099020  11.219600  59.211100  -5.356660  65.123300  -8.081940 -16.360700  79.053500  -1.335630  -4.295850  10.673600 -33.045900  38.479300  72.445700  43.425400  -0.002230   0.000113  18.831500  -0.001996   0.000123   3.454720   0.667844  10.934100   2.878130   0.000784   0.008944   2.014700  -0.001226   0.006646  80.944600  -0.000609   0.000547  80.944500   0.000251   0.004036  60.708500   0.004039  -0.000549  80.864100  -4.941120  -0.792875  80.898300   0.000903   0.001144  60.673800  -0.000865  -0.000724  83.965300  -9.948330  -1.046060 110.000000  -0.005334  -0.001183  80.000000  -0.002109  -0.003561   0.899928  15.172200  -0.418009  -0.425824   2.153410  11.103800  -1.655270  -3.913940   0.443791   0.000000   0.000000   0.000000  -0.578611   8.984570  -5.584690  -2.606580  13.841700 -11.906000   3.535710  -7.295200   1.993180  -0.000000   0.000000  -0.000000
  1.795950  89.227200   1.893320  -1.097190 -14.208100  -2.419860   1.180750   9.763910   2.196320   2.019170  19.564700   4.278950  -1.423090  -2.325620  -0.059905  -2.342520  -4.706900   2.043050  -7.606860  -3.932430   4.195550 -74.902800  15.960400  -9.463310  -0.813286  -1.974690 -16.514800   8.531380  -5.792430  -4.067850  39.150800  31.833700 -50.401900 -32.484200   0.002508   0.002706 -11.242100   0.000572   0.001780 -30.539700  -1.320930   2.237130 -25.007900   0.003697  -0.006852 -17.505500   0.002671  -0.008176 -23.139200  -4.086690   9.467900 -23.477800  -0.001558  -0.009881 -15.636200  -0.000877   0.003393 -28.211400  -4.912290   9.069380 -37.411500   0.000378  -0.007247 -24.916100   0.009410  -0.004336 -34.889700  -5.936310   8.436090 -52.992100  -0.003447  -0.008239 -35.292700  -0.002314  -0.000603   4.010250  -2.074240  11.155600  59.254800  -5.463820  64.826300  -8.313530 -16.786400  77.870700  -1.450800  -5.064440  11.076100 -33.627900  39.323700  73.398800  43.143900  -0.002270  -0.000283  18.537700  -0.002184  -0.000273   3.470450   0.708165  11.623400   2.898890   0.000782   0.008652   2.029220  -0.001070   0.006433  80.882400  -0.001419   0.000640  80.882300   0.000025   0.004166  60.661800   0.003967  -0.000184  80.809400  -4.940840  -0.797711  80.843900   0.000804   0.001148  60.632900  -0.001000  -0.000496  83.972400  -9.948220  -1.044900 110.000000  -0.005296  -0.001191  80.000000  -0.002085  -0.003646   1.006680  15.265700  -0.577582  -0.400145   2.101300  10.788600  -1.718330  -3.850320   0.190896   0.000000   0.000000   0.000000  -0.506633   9.349320  -5.744480  -2.484000  13.569900 -12.307800   3.466490  -7.281180   1.786540   0.000000   0.000000  -0.000000
  1.786030  89.243200   1.946620  -1.005620 -14.293900  -1.709260   1.123840   9.742930   2.229490   1.897890  19.521300   4.358520  -1.413040  -2.431820  -0.060061  -2.333640  -4.921660   1.618280  -7.615040  -3.917160   4.190430 -74.974300  15.593500  -9.345480  -0.672831  -1.602360 -16.354000   8.656320  -5.788960  -3.975110  38.922900  31.384500 -49.848000 -32.497500   0.002528   0.002761 -11.248800   0.000607   0.001798 -30.573700  -1.300190   2.200040 -25.035400   0.003715  -0.006936 -17.524800   0.002726  -0.008300 -23.156300  -4.088160   9.463770 -23.494800  -0.001555  -0.010004 -15.647500  -0.000892   0.003448 -28.213100  -4.910810   9.066300 -37.425100   0.000415  -0.007353 -24.925100   0.009507  -0.004364 -34.875600  -5.933140   8.436170 -52.970100  -0.003450  -0.008464 -35.278100  -0.002321  -0.000612   4.075720  -2.026060  11.114200  59.242200  -5.518880  64.587100  -8.818020 -16.995300  77.238300  -1.542010  -5.411110  11.358900 -33.896600  39.769000  73.962800  42.956200  -0.002306  -0.000504  18.337400  -0.002354  -0.000417   3.512790   0.761177  12.208300   2.940380   0.000763   0.008349   2.058260  -0.000953   0.006211  80.865700  -0.002235   0.000761  80.865700  -0.000223   0.004288  60.649300   0.003898   0.000138  80.801600  -4.940600  -0.798401  80.836100   0.000717   0.001152  60.627100  -0.001038  -0.000312  84.005400  -9.948150  -1.039260 110.000000  -0.005260  -0.001198  80.000000  -0.002062  -0.003734   1.109210  15.339400  -0.744961  -0.375263   2.050670  10.468700  -1.773180  -3.790780  -0.034059   0.000000   0.000000   0.000000  -0.434126   9.709360  -5.900740  -2.361060  13.266100 -12.701000   3.399660  -7.250040   1.583130   0.000000   0.000000  -0.000000
  1.786680  89.260000   2.006310  -0.924897 -14.367800  -1.036300   1.096780   9.720830   2.232650   1.842920  19.476400   4.372190  -1.463990  -2.527110  -0.064130  -2.424590  -5.113830   1.305640  -7.616380  -3.896610   4.237250 -75.141200  15.153400  -9.164110  -0.528323  -1.185740 -16.265400   8.747010  -5.916020  -3.918150  38.798700  31.118900 -49.633600 -32.512900   0.002549   0.002801 -11.256500   0.000650   0.001820 -30.631300  -1.310150   2.212950 -25.082700   0.003730  -0.007024 -17.557900   0.002780  -0.008423 -23.211100  -4.092870   9.450210 -23.549400  -0.001551  -0.010124 -15.683900  -0.000907   0.003503 -28.218000  -4.906390   9.056220 -37.495700   0.000454  -0.007458 -24.972100   0.009602  -0.004391 -34.905800  -5.930680   8.426300 -53.014900  -0.003452  -0.008683 -35.308000  -0.002327  -0.000622   4.131780  -1.974430  11.098600  59.880000  -5.553350  64.405900  -9.476490 -16.795100  76.982400  -1.617810  -5.520960  11.647800 -33.888100  39.698400  73.997000  42.810900  -0.002345  -0.000798  18.185800  -0.002522  -0.000676   3.561780   0.796586  12.627800   2.986390   0.000700   0.008042   2.090460  -0.000867   0.005978  80.932800  -0.003052   0.000909  80.932800  -0.000488   0.004410  60.699500   0.003836   0.000420  80.892800  -4.940410  -0.792011  80.927000   0.000640   0.001156  60.695300  -0.000989  -0.000144  84.101800  -9.948140  -1.022530 110.000000  -0.005222  -0.001204  80.000000  -0.002037  -0.003820   1.205520  15.415600  -0.901235  -0.348934   1.989030  10.153500  -1.821570  -3.733150  -0.237685   0.000000   0.000000   0.000000  -0.357623  10.097600  -6.005450  -2.234930  12.899800 -13.106400   3.333150  -7.195720   1.373740  -0.000000   0.000000  -0.000000
